<?xml version="1.0" standalone="no"?>
<!DOCTYPE svg PUBLIC "-//W3C//DTD SVG 1.1//EN" 
  "http://www.w3.org/Graphics/SVG/1.1/DTD/svg11.dtd">
<svg width="4096" height="4096" viewBox="0 0 4096 4096"
     xmlns="http://www.w3.org/2000/svg" version="1.1">
<desc>barnEditing.blend, (Blender 2.92.0)</desc>
<polygon stroke="black" stroke-width="1" fill="rgb(204, 204, 204)" fill-opacity="0.25" points="681.589,690.649 670.253,690.614 670.253,942.836 681.589,942.871 " />
<polygon stroke="black" stroke-width="1" fill="rgb(204, 204, 204)" fill-opacity="0.25" points="598.698,612.388 587.362,612.366 587.362,942.850 598.698,942.871 " />
<polygon stroke="black" stroke-width="1" fill="rgb(204, 204, 204)" fill-opacity="0.25" points="681.589,942.871 692.926,942.836 692.926,690.614 681.589,690.649 " />
<polygon stroke="black" stroke-width="1" fill="rgb(204, 204, 204)" fill-opacity="0.25" points="598.699,942.871 610.035,942.850 610.035,612.366 598.699,612.388 " />
<polygon stroke="black" stroke-width="1" fill="rgb(204, 204, 204)" fill-opacity="0.25" points="767.665,942.871 767.665,729.252 755.629,728.579 755.629,942.197 " />
<polygon stroke="black" stroke-width="1" fill="rgb(204, 204, 204)" fill-opacity="0.25" points="424.222,923.569 210.603,923.569 191.301,942.871 443.523,942.871 " />
<polygon stroke="black" stroke-width="1" fill="rgb(204, 204, 204)" fill-opacity="0.25" points="210.603,923.569 210.603,631.689 191.301,612.388 191.301,942.871 " />
<polygon stroke="black" stroke-width="1" fill="rgb(204, 204, 204)" fill-opacity="0.25" points="210.603,631.689 424.222,631.689 443.523,612.388 191.301,612.388 " />
<polygon stroke="black" stroke-width="1" fill="rgb(204, 204, 204)" fill-opacity="0.25" points="424.222,631.689 424.222,923.569 443.523,942.871 443.523,612.388 " />
<polygon stroke="black" stroke-width="1" fill="rgb(204, 204, 204)" fill-opacity="0.25" points="755.628,942.197 755.628,728.579 743.592,729.252 743.592,942.871 " />
<polygon stroke="black" stroke-width="1" fill="rgb(204, 204, 204)" fill-opacity="0.25" points="622.072,942.871 622.072,650.991 610.035,650.332 610.035,942.212 " />
<polygon stroke="black" stroke-width="1" fill="rgb(204, 204, 204)" fill-opacity="0.25" points="634.109,942.212 634.109,650.333 622.072,650.992 622.072,942.871 " />
<polygon stroke="black" stroke-width="1" fill="rgb(204, 204, 204)" fill-opacity="0.25" points="1827.972,2582.400 1827.972,943.523 1800.665,941.784 1800.665,2580.662 " />
<polygon stroke="black" stroke-width="1" fill="rgb(204, 204, 204)" fill-opacity="0.25" points="3940.219,2457.105 3932.865,2457.121 3932.865,4096.000 3940.219,4095.984 " />
<polygon stroke="black" stroke-width="1" fill="rgb(204, 204, 204)" fill-opacity="0.25" points="2018.133,2457.121 2018.133,4096.000 2045.404,4096.000 2045.404,2457.121 " />
<polygon stroke="black" stroke-width="1" fill="rgb(204, 204, 204)" fill-opacity="0.25" points="1835.400,943.506 1827.972,943.523 1827.972,2582.400 1835.400,2582.383 " />
<polygon stroke="black" stroke-width="1" fill="rgb(204, 204, 204)" fill-opacity="0.25" points="2524.715,4095.781 2798.826,4095.566 2798.826,2456.688 2524.715,2456.906 " />
<polygon stroke="black" stroke-width="1" fill="rgb(204, 204, 204)" fill-opacity="0.25" points="501.691,2582.183 762.273,2581.966 762.273,943.088 501.691,943.306 " />
<polygon stroke="black" stroke-width="1" fill="rgb(204, 204, 204)" fill-opacity="0.25" points="1985.134,943.306 1849.007,943.469 1849.007,2582.346 1985.134,2582.183 " />
<polygon stroke="black" stroke-width="1" fill="rgb(204, 204, 204)" fill-opacity="0.25" points="2798.826,4095.566 2830.910,4095.348 2830.910,2456.469 2798.826,2456.688 " />
<polygon stroke="black" stroke-width="1" fill="rgb(204, 204, 204)" fill-opacity="0.25" points="762.273,2581.966 791.598,2581.748 791.598,942.871 762.273,943.088 " />
<polygon stroke="black" stroke-width="1" fill="rgb(204, 204, 204)" fill-opacity="0.25" points="141.734,2582.346 501.691,2582.183 501.691,943.306 141.734,943.469 " />
<polygon stroke="black" stroke-width="1" fill="rgb(204, 204, 204)" fill-opacity="0.25" points="4096.000,2456.906 3958.056,2457.066 3958.056,4095.945 4096.000,4095.781 " />
<polygon stroke="black" stroke-width="1" fill="rgb(204, 204, 204)" fill-opacity="0.25" points="2163.535,4095.945 2524.715,4095.781 2524.715,2456.906 2163.535,2457.070 " />
<polygon stroke="black" stroke-width="1" fill="rgb(204, 204, 204)" fill-opacity="0.25" points="41.111,2582.383 141.734,2582.346 141.734,943.469 41.111,943.506 " />
<polygon stroke="black" stroke-width="1" fill="rgb(204, 204, 204)" fill-opacity="0.25" points="2086.525,4095.984 2163.535,4095.945 2163.535,2457.070 2086.525,2457.105 " />
<polygon stroke="black" stroke-width="1" fill="rgb(204, 204, 204)" fill-opacity="0.25" points="2045.404,4096.000 2086.525,4095.984 2086.525,2457.105 2045.404,2457.121 " />
<polygon stroke="black" stroke-width="1" fill="rgb(204, 204, 204)" fill-opacity="0.25" points="0.000,2582.400 41.111,2582.383 41.111,943.506 0.000,943.523 " />
<polygon stroke="black" stroke-width="1" fill="rgb(204, 204, 204)" fill-opacity="0.25" points="3607.980,1390.377 3574.217,1390.359 3544.236,1418.995 3488.004,1472.500 3180.646,1663.719 3030.807,1923.067 3180.623,2182.571 3487.723,2373.396 3543.889,2427.474 3574.168,2456.471 3607.980,2456.458 3577.701,2427.461 3504.959,2358.092 3196.383,2169.359 3053.408,1923.063 3196.383,1676.917 3504.719,1489.223 3578.002,1419.012 " />
<polygon stroke="black" stroke-width="1" fill="rgb(204, 204, 204)" fill-opacity="0.25" points="1849.007,943.469 1835.400,943.506 1835.400,2582.383 1849.007,2582.346 " />
<polygon stroke="black" stroke-width="1" fill="rgb(204, 204, 204)" fill-opacity="0.25" points="3958.056,2457.066 3940.219,2457.105 3940.219,4095.984 3958.056,4095.945 " />
<polygon stroke="black" stroke-width="1" fill="rgb(204, 204, 204)" fill-opacity="0.25" points="2853.514,3563.297 2996.488,3317.000 3305.064,3128.266 3377.807,3058.898 3408.086,3029.902 3374.273,3029.887 3343.994,3058.887 3287.828,3112.961 2980.729,3303.789 2830.912,3563.293 2980.752,3822.641 3288.109,4013.859 3344.342,4067.363 3374.322,4096.000 3408.086,4095.980 3378.107,4067.348 3304.824,3997.137 2996.488,3809.441 " />
<polygon stroke="black" stroke-width="1" fill="rgb(204, 204, 204)" fill-opacity="0.25" points="3564.379,3029.889 3568.590,3029.889 3568.590,2993.215 3564.379,2993.215 " />
<polygon stroke="black" stroke-width="1" fill="rgb(204, 204, 204)" fill-opacity="0.25" points="3564.379,2993.215 3568.590,2993.215 3568.590,2560.271 3564.379,2560.271 " />
<polygon stroke="black" stroke-width="1" fill="rgb(204, 204, 204)" fill-opacity="0.25" points="3564.379,2560.271 3560.168,2560.271 3560.168,2596.945 3564.379,2596.945 " />
<polygon stroke="black" stroke-width="1" fill="rgb(204, 204, 204)" fill-opacity="0.25" points="3564.379,2596.945 3560.168,2596.945 3560.168,3029.889 3564.379,3029.889 " />
<polygon stroke="black" stroke-width="1" fill="rgb(204, 204, 204)" fill-opacity="0.25" points="1985.133,623.021 1985.133,1066.891 2001.308,1032.947 2001.308,589.077 " />
<polygon stroke="black" stroke-width="1" fill="rgb(204, 204, 204)" fill-opacity="0.25" points="2017.483,1066.891 2017.483,623.021 2001.308,589.077 2001.308,1032.947 " />
<polygon stroke="black" stroke-width="1" fill="rgb(204, 204, 204)" fill-opacity="0.25" points="2004.238,2582.400 2010.348,2582.400 2010.348,2121.820 2004.238,2121.820 " />
<polygon stroke="black" stroke-width="1" fill="rgb(204, 204, 204)" fill-opacity="0.25" points="718.258,942.871 724.367,942.871 724.367,729.709 718.258,729.709 " />
<polygon stroke="black" stroke-width="1" fill="rgb(204, 204, 204)" fill-opacity="0.25" points="2016.906,1661.240 2010.793,1661.240 2010.793,2121.820 2016.906,2121.820 " />
<polygon stroke="black" stroke-width="1" fill="rgb(204, 204, 204)" fill-opacity="0.25" points="705.594,729.709 699.480,729.709 699.480,942.871 705.594,942.871 " />
<polygon stroke="black" stroke-width="1" fill="rgb(204, 204, 204)" fill-opacity="0.25" points="3470.396,2569.309 3257.234,2569.309 3257.234,3029.889 3470.396,3029.889 " />
<polygon stroke="black" stroke-width="1" fill="rgb(204, 204, 204)" fill-opacity="0.25" points="2928.932,547.055 2737.631,547.055 2737.631,985.773 2928.932,985.773 " />
<polygon stroke="black" stroke-width="1" fill="rgb(204, 204, 204)" fill-opacity="0.25" points="2010.793,2121.820 2010.793,1661.240 2004.238,1661.240 2004.238,2121.820 " />
<polygon stroke="black" stroke-width="1" fill="rgb(204, 204, 204)" fill-opacity="0.25" points="3542.844,3029.889 3542.844,2591.170 3536.289,2591.170 3536.289,3029.889 " />
<polygon stroke="black" stroke-width="1" fill="rgb(204, 204, 204)" fill-opacity="0.25" points="3549.402,2591.170 3549.402,3029.889 3555.957,3029.889 3555.957,2591.170 " />
<polygon stroke="black" stroke-width="1" fill="rgb(204, 204, 204)" fill-opacity="0.25" points="724.367,729.709 724.367,942.871 730.926,942.871 730.926,729.709 " />
<polygon stroke="black" stroke-width="1" fill="rgb(204, 204, 204)" fill-opacity="0.25" points="3055.002,3018.959 3055.002,2580.240 3044.072,2569.309 3044.072,3029.889 " />
<polygon stroke="black" stroke-width="1" fill="rgb(204, 204, 204)" fill-opacity="0.25" points="3055.002,2580.240 3246.303,2580.240 3257.234,2569.309 3044.072,2569.309 " />
<polygon stroke="black" stroke-width="1" fill="rgb(204, 204, 204)" fill-opacity="0.25" points="3246.303,2580.240 3246.303,3018.959 3257.234,3029.889 3257.234,2569.309 " />
<polygon stroke="black" stroke-width="1" fill="rgb(204, 204, 204)" fill-opacity="0.25" points="3246.303,3018.959 3055.002,3018.959 3044.072,3029.889 3257.234,3029.889 " />
<polygon stroke="black" stroke-width="1" fill="rgb(204, 204, 204)" fill-opacity="0.25" points="780.777,751.570 780.777,942.871 787.332,942.871 787.332,751.570 " />
<polygon stroke="black" stroke-width="1" fill="rgb(204, 204, 204)" fill-opacity="0.25" points="774.219,942.871 774.219,751.570 767.664,751.570 767.664,942.871 " />
<polygon stroke="black" stroke-width="1" fill="rgb(204, 204, 204)" fill-opacity="0.25" points="2010.348,2121.820 2010.348,2582.400 2016.906,2582.400 2016.906,2121.820 " />
<polygon stroke="black" stroke-width="1" fill="rgb(204, 204, 204)" fill-opacity="0.25" points="699.480,942.871 699.480,729.709 692.926,729.709 692.926,942.871 " />
<polygon stroke="black" stroke-width="1" fill="rgb(204, 204, 204)" fill-opacity="0.25" points="2839.945,2471.443 2848.980,2471.443 2848.980,2457.120 2839.945,2457.120 " />
<polygon stroke="black" stroke-width="1" fill="rgb(204, 204, 204)" fill-opacity="0.25" points="661.219,942.871 670.254,942.871 670.254,558.653 661.219,558.653 " />
<polygon stroke="black" stroke-width="1" fill="rgb(204, 204, 204)" fill-opacity="0.25" points="2854.270,2554.986 2845.234,2554.986 2845.234,2569.309 2854.270,2569.309 " />
<polygon stroke="black" stroke-width="1" fill="rgb(204, 204, 204)" fill-opacity="0.25" points="661.215,558.653 652.180,558.653 652.180,942.871 661.215,942.871 " />
<polygon stroke="black" stroke-width="1" fill="rgb(204, 204, 204)" fill-opacity="0.25" points="486.889,558.653 486.889,942.871 501.212,942.871 501.212,558.653 " />
<polygon stroke="black" stroke-width="1" fill="rgb(204, 204, 204)" fill-opacity="0.25" points="472.566,558.653 472.566,942.871 486.889,942.871 486.889,558.653 " />
<polygon stroke="black" stroke-width="1" fill="rgb(204, 204, 204)" fill-opacity="0.25" points="3568.590,3029.889 3572.801,3029.889 3572.801,2993.215 3568.590,2993.215 " />
<polygon stroke="black" stroke-width="1" fill="rgb(204, 204, 204)" fill-opacity="0.25" points="3568.590,2993.215 3572.801,2993.215 3572.801,2560.271 3568.590,2560.271 " />
<polygon stroke="black" stroke-width="1" fill="rgb(204, 204, 204)" fill-opacity="0.25" points="3560.168,2560.271 3555.957,2560.271 3555.957,2596.945 3560.168,2596.945 " />
<polygon stroke="black" stroke-width="1" fill="rgb(204, 204, 204)" fill-opacity="0.25" points="3560.168,2596.945 3555.957,2596.945 3555.957,3029.889 3560.168,3029.889 " />
<polygon stroke="black" stroke-width="1" fill="rgb(204, 204, 204)" fill-opacity="0.25" points="3486.571,2586.019 3486.571,3029.889 3502.746,2995.945 3502.746,2552.075 " />
<polygon stroke="black" stroke-width="1" fill="rgb(204, 204, 204)" fill-opacity="0.25" points="3486.570,3029.889 3486.570,2586.019 3470.396,2552.075 3470.396,2995.945 " />
<polygon stroke="black" stroke-width="1" fill="rgb(204, 204, 204)" fill-opacity="0.25" points="2830.910,2471.443 2839.945,2471.443 2839.945,2457.120 2830.910,2457.120 " />
<polygon stroke="black" stroke-width="1" fill="rgb(204, 204, 204)" fill-opacity="0.25" points="643.145,942.869 652.180,942.869 652.180,558.008 643.145,558.008 " />
<polygon stroke="black" stroke-width="1" fill="rgb(204, 204, 204)" fill-opacity="0.25" points="2854.270,2540.664 2845.234,2540.664 2845.234,2554.986 2854.270,2554.986 " />
<polygon stroke="black" stroke-width="1" fill="rgb(204, 204, 204)" fill-opacity="0.25" points="643.145,558.008 634.109,558.008 634.109,942.869 643.145,942.869 " />
<polygon stroke="black" stroke-width="1" fill="rgb(204, 204, 204)" fill-opacity="0.25" points="3515.412,2645.027 3515.412,3029.889 3529.735,3029.889 3529.735,2645.027 " />
<polygon stroke="black" stroke-width="1" fill="rgb(204, 204, 204)" fill-opacity="0.25" points="3016.061,600.912 3016.061,985.773 3030.384,985.773 3030.384,600.912 " />
<polygon stroke="black" stroke-width="1" fill="rgb(204, 204, 204)" fill-opacity="0.25" points="2004.238,1661.242 2010.348,1661.242 2010.348,1200.662 2004.238,1200.662 " />
<polygon stroke="black" stroke-width="1" fill="rgb(204, 204, 204)" fill-opacity="0.25" points="730.926,942.871 737.035,942.871 737.035,729.709 730.926,729.709 " />
<polygon stroke="black" stroke-width="1" fill="rgb(204, 204, 204)" fill-opacity="0.25" points="3515.410,2569.309 3509.297,2569.309 3509.297,3029.889 3515.410,3029.889 " />
<polygon stroke="black" stroke-width="1" fill="rgb(204, 204, 204)" fill-opacity="0.25" points="718.262,729.709 712.148,729.709 712.148,942.871 718.262,942.871 " />
<polygon stroke="black" stroke-width="1" fill="rgb(204, 204, 204)" fill-opacity="0.25" points="2737.632,525.193 2524.471,525.193 2524.471,985.773 2737.632,985.773 " />
<polygon stroke="black" stroke-width="1" fill="rgb(204, 204, 204)" fill-opacity="0.25" points="191.301,504.152 0.000,504.152 0.000,942.871 191.301,942.871 " />
<polygon stroke="black" stroke-width="1" fill="rgb(204, 204, 204)" fill-opacity="0.25" points="3509.297,3029.889 3509.297,2569.309 3502.742,2569.309 3502.742,3029.889 " />
<polygon stroke="black" stroke-width="1" fill="rgb(204, 204, 204)" fill-opacity="0.25" points="3536.289,3029.889 3536.289,2591.170 3529.734,2591.170 3529.734,3029.889 " />
<polygon stroke="black" stroke-width="1" fill="rgb(204, 204, 204)" fill-opacity="0.25" points="3542.848,2591.170 3542.848,3029.889 3549.402,3029.889 3549.402,2591.170 " />
<polygon stroke="black" stroke-width="1" fill="rgb(204, 204, 204)" fill-opacity="0.25" points="737.035,729.709 737.035,942.871 743.594,942.871 743.594,729.709 " />
<polygon stroke="black" stroke-width="1" fill="rgb(204, 204, 204)" fill-opacity="0.25" points="2841.842,3018.959 2841.842,2580.240 2830.912,2569.309 2830.912,3029.889 " />
<polygon stroke="black" stroke-width="1" fill="rgb(204, 204, 204)" fill-opacity="0.25" points="2841.842,2580.240 3033.143,2580.240 3044.074,2569.309 2830.912,2569.309 " />
<polygon stroke="black" stroke-width="1" fill="rgb(204, 204, 204)" fill-opacity="0.25" points="3033.143,2580.240 3033.143,3018.959 3044.074,3029.889 3044.074,2569.309 " />
<polygon stroke="black" stroke-width="1" fill="rgb(204, 204, 204)" fill-opacity="0.25" points="3033.143,3018.959 2841.842,3018.959 2830.912,3029.889 3044.074,3029.889 " />
<polygon stroke="black" stroke-width="1" fill="rgb(204, 204, 204)" fill-opacity="0.25" points="1800.664,750.482 1800.664,941.783 1807.219,941.783 1807.219,750.482 " />
<polygon stroke="black" stroke-width="1" fill="rgb(204, 204, 204)" fill-opacity="0.25" points="780.773,942.871 780.773,751.570 774.219,751.570 774.219,942.871 " />
<polygon stroke="black" stroke-width="1" fill="rgb(204, 204, 204)" fill-opacity="0.25" points="2010.348,1200.662 2010.348,1661.242 2016.906,1661.242 2016.906,1200.662 " />
<polygon stroke="black" stroke-width="1" fill="rgb(204, 204, 204)" fill-opacity="0.25" points="712.148,942.871 712.148,729.709 705.594,729.709 705.594,942.871 " />
<polygon stroke="black" stroke-width="1" fill="rgb(204, 204, 204)" fill-opacity="0.25" points="2845.234,2550.207 2845.234,2531.102 2830.911,2531.102 2830.911,2550.207 " />
<polygon stroke="black" stroke-width="1" fill="rgb(204, 204, 204)" fill-opacity="0.25" points="3607.984,2456.471 3627.090,2456.471 3627.090,1773.305 3607.984,1773.305 " />
<polygon stroke="black" stroke-width="1" fill="rgb(204, 204, 204)" fill-opacity="0.25" points="2830.911,2511.996 2830.911,2531.102 2845.234,2531.102 2845.234,2511.996 " />
<polygon stroke="black" stroke-width="1" fill="rgb(204, 204, 204)" fill-opacity="0.25" points="3646.191,1773.305 3627.086,1773.305 3627.086,2456.471 3646.191,2456.471 " />
<polygon stroke="black" stroke-width="1" fill="rgb(204, 204, 204)" fill-opacity="0.25" points="3689.159,1773.305 3689.159,2456.471 3703.481,2456.471 3703.481,1773.305 " />
<polygon stroke="black" stroke-width="1" fill="rgb(204, 204, 204)" fill-opacity="0.25" points="3674.835,1773.305 3674.835,2456.471 3689.158,2456.471 3689.158,1773.305 " />
<polygon stroke="black" stroke-width="1" fill="rgb(204, 204, 204)" fill-opacity="0.25" points="2845.234,2569.309 2845.234,2550.203 2830.911,2550.203 2830.911,2569.309 " />
<polygon stroke="black" stroke-width="1" fill="rgb(204, 204, 204)" fill-opacity="0.25" points="1985.133,2582.400 2004.238,2582.400 2004.238,1824.646 1985.133,1824.646 " />
<polygon stroke="black" stroke-width="1" fill="rgb(204, 204, 204)" fill-opacity="0.25" points="2830.911,2492.891 2830.911,2511.996 2845.234,2511.996 2845.234,2492.891 " />
<polygon stroke="black" stroke-width="1" fill="rgb(204, 204, 204)" fill-opacity="0.25" points="2004.238,1066.893 1985.133,1066.893 1985.133,1824.646 2004.238,1824.646 " />
<polygon stroke="black" stroke-width="1" fill="rgb(204, 204, 204)" fill-opacity="0.25" points="3660.512,1698.716 3660.512,2456.471 3674.835,2456.471 3674.835,1698.716 " />
<polygon stroke="black" stroke-width="1" fill="rgb(204, 204, 204)" fill-opacity="0.25" points="3646.189,1698.717 3646.189,2456.471 3660.512,2456.471 3660.512,1698.717 " />
<polygon stroke="black" stroke-width="1" fill="rgb(204, 204, 204)" fill-opacity="0.25" points="1832.480,941.783 1836.691,941.783 1836.691,921.471 1832.480,921.471 " />
<polygon stroke="black" stroke-width="1" fill="rgb(204, 204, 204)" fill-opacity="0.25" points="1811.430,747.105 1811.430,767.418 1815.641,767.418 1815.641,747.105 " />
<polygon stroke="black" stroke-width="1" fill="rgb(204, 204, 204)" fill-opacity="0.25" points="1815.641,905.109 1815.641,941.783 1819.852,941.783 1819.852,905.109 " />
<polygon stroke="black" stroke-width="1" fill="rgb(204, 204, 204)" fill-opacity="0.25" points="1836.691,921.471 1836.691,747.105 1832.480,747.105 1832.480,921.471 " />
<polygon stroke="black" stroke-width="1" fill="rgb(204, 204, 204)" fill-opacity="0.25" points="1815.641,747.105 1815.641,905.109 1819.852,905.109 1819.852,747.105 " />
<polygon stroke="black" stroke-width="1" fill="rgb(204, 204, 204)" fill-opacity="0.25" points="1824.062,747.105 1819.852,747.105 1819.852,783.779 1824.062,783.779 " />
<polygon stroke="black" stroke-width="1" fill="rgb(204, 204, 204)" fill-opacity="0.25" points="1811.430,767.418 1811.430,941.783 1815.641,941.783 1815.641,767.418 " />
<polygon stroke="black" stroke-width="1" fill="rgb(204, 204, 204)" fill-opacity="0.25" points="1824.062,941.783 1824.062,783.779 1819.852,783.779 1819.852,941.783 " />
<polygon stroke="black" stroke-width="1" fill="rgb(204, 204, 204)" fill-opacity="0.25" points="571.188,707.818 571.188,908.928 587.363,942.871 587.363,720.936 " />
<polygon stroke="black" stroke-width="1" fill="rgb(204, 204, 204)" fill-opacity="0.25" points="555.014,942.871 555.014,741.762 538.838,707.818 538.838,929.753 " />
<polygon stroke="black" stroke-width="1" fill="rgb(204, 204, 204)" fill-opacity="0.25" points="3016.062,950.800 3002.255,750.165 2987.019,764.362 3002.255,985.773 " />
<polygon stroke="black" stroke-width="1" fill="rgb(204, 204, 204)" fill-opacity="0.25" points="2957.977,950.799 2944.170,750.164 2928.934,764.361 2944.170,985.773 " />
<polygon stroke="black" stroke-width="1" fill="rgb(204, 204, 204)" fill-opacity="0.25" points="2018.133,985.773 2018.133,2456.473 2524.470,2456.473 2524.470,985.773 " />
<polygon stroke="black" stroke-width="1" fill="rgb(204, 204, 204)" fill-opacity="0.25" points="1296.132,1068.797 791.598,1068.797 791.598,2582.398 1296.132,2582.398 " />
<polygon stroke="black" stroke-width="1" fill="rgb(204, 204, 204)" fill-opacity="0.25" points="1296.131,59.734 791.598,59.734 791.598,447.512 800.826,447.512 800.826,681.016 791.598,681.016 791.598,1068.801 1296.131,1068.801 " />
<polygon stroke="black" stroke-width="1" fill="rgb(204, 204, 204)" fill-opacity="0.25" points="2018.133,2582.400 2003.832,2603.853 2003.832,4074.550 2018.133,4096.000 " />
<polygon stroke="black" stroke-width="1" fill="rgb(204, 204, 204)" fill-opacity="0.25" points="1296.131,1068.801 1800.664,1068.801 1800.664,59.734 1296.131,59.734 " />
<polygon stroke="black" stroke-width="1" fill="rgb(204, 204, 204)" fill-opacity="0.25" points="1800.665,1068.801 1296.132,1068.801 1296.132,2582.400 1800.665,2582.400 " />
<polygon stroke="black" stroke-width="1" fill="rgb(204, 204, 204)" fill-opacity="0.25" points="994.766,2603.852 994.766,4074.547 1009.066,4096.000 1009.066,2582.398 " />
<polygon stroke="black" stroke-width="1" fill="rgb(204, 204, 204)" fill-opacity="0.25" points="14.301,2603.852 994.766,2603.852 1009.066,2582.398 0.000,2582.398 " />
<polygon stroke="black" stroke-width="1" fill="rgb(204, 204, 204)" fill-opacity="0.25" points="994.766,4074.547 621.320,4074.547 621.289,4096.000 1009.066,4096.000 " />
<polygon stroke="black" stroke-width="1" fill="rgb(204, 204, 204)" fill-opacity="0.25" points="14.301,4074.547 14.301,2603.852 0.000,2582.398 0.000,4096.000 " />
<polygon stroke="black" stroke-width="1" fill="rgb(204, 204, 204)" fill-opacity="0.25" points="2018.133,4096.000 2003.832,4074.550 1023.367,4074.550 1009.066,4096.000 " />
<polygon stroke="black" stroke-width="1" fill="rgb(204, 204, 204)" fill-opacity="0.25" points="4061.926,1390.359 4061.926,409.895 3555.588,409.895 3555.588,1390.359 " />
<polygon stroke="black" stroke-width="1" fill="rgb(204, 204, 204)" fill-opacity="0.25" points="2524.469,985.773 2524.469,612.258 2515.199,612.258 2515.199,378.754 2524.469,378.754 2524.469,5.309 2018.133,5.309 2018.133,985.773 " />
<polygon stroke="black" stroke-width="1" fill="rgb(204, 204, 204)" fill-opacity="0.25" points="2524.470,985.773 2524.470,2456.470 3030.807,2456.470 3030.807,985.773 " />
<polygon stroke="black" stroke-width="1" fill="rgb(204, 204, 204)" fill-opacity="0.25" points="1009.066,4096.000 1023.367,4074.550 1023.367,2603.853 1009.066,2582.400 " />
<polygon stroke="black" stroke-width="1" fill="rgb(204, 204, 204)" fill-opacity="0.25" points="1009.066,2582.400 1023.367,2603.853 2003.832,2603.853 2018.133,2582.400 " />
<polygon stroke="black" stroke-width="1" fill="rgb(204, 204, 204)" fill-opacity="0.25" points="3173.848,1131.979 3482.553,1320.570 3555.326,1389.910 3555.586,1390.359 3555.572,1002.582 3350.025,1002.590 3350.016,769.086 3555.562,769.078 3555.547,381.293 3555.586,381.286 3482.277,451.550 3173.826,639.450 3030.807,885.720 " />
<polygon stroke="black" stroke-width="1" fill="rgb(204, 204, 204)" fill-opacity="0.25" points="3859.832,3156.715 3551.127,3345.305 3408.086,3591.566 3551.105,3837.836 3859.557,4025.734 3932.865,4096.000 3932.822,4095.992 3932.865,3086.926 3932.607,3087.375 " />
<polygon stroke="black" stroke-width="1" fill="rgb(204, 204, 204)" fill-opacity="0.25" points="2830.911,2471.441 2830.952,2492.895 2840.180,2492.895 2840.180,2471.441 " />
<polygon stroke="black" stroke-width="1" fill="rgb(204, 204, 204)" fill-opacity="0.25" points="387.785,4096.000 387.816,4074.547 14.301,4074.547 0.000,4096.000 " />
<polygon stroke="black" stroke-width="1" fill="rgb(204, 204, 204)" fill-opacity="0.25" points="522.664,709.336 501.211,709.367 501.211,942.871 522.664,942.840 " />
<polygon stroke="black" stroke-width="1" fill="rgb(204, 204, 204)" fill-opacity="0.25" points="2840.221,2471.441 2840.180,2492.895 2849.449,2492.895 2849.449,2471.441 " />
<polygon stroke="black" stroke-width="1" fill="rgb(204, 204, 204)" fill-opacity="0.25" points="1828.270,941.783 1832.480,941.783 1832.480,921.471 1828.270,921.471 " />
<polygon stroke="black" stroke-width="1" fill="rgb(204, 204, 204)" fill-opacity="0.25" points="787.387,748.193 787.387,768.506 791.598,768.506 791.598,748.193 " />
<polygon stroke="black" stroke-width="1" fill="rgb(204, 204, 204)" fill-opacity="0.25" points="1807.219,905.109 1807.219,941.783 1811.430,941.783 1811.430,905.109 " />
<polygon stroke="black" stroke-width="1" fill="rgb(204, 204, 204)" fill-opacity="0.25" points="1832.480,921.471 1832.480,747.105 1828.270,747.105 1828.270,921.471 " />
<polygon stroke="black" stroke-width="1" fill="rgb(204, 204, 204)" fill-opacity="0.25" points="1807.219,747.105 1807.219,905.109 1811.430,905.109 1811.430,747.105 " />
<polygon stroke="black" stroke-width="1" fill="rgb(204, 204, 204)" fill-opacity="0.25" points="1828.270,747.105 1824.059,747.105 1824.059,783.779 1828.270,783.779 " />
<polygon stroke="black" stroke-width="1" fill="rgb(204, 204, 204)" fill-opacity="0.25" points="787.387,768.506 787.387,942.871 791.598,942.871 791.598,768.506 " />
<polygon stroke="black" stroke-width="1" fill="rgb(204, 204, 204)" fill-opacity="0.25" points="1828.270,941.783 1828.270,783.779 1824.059,783.779 1824.059,941.783 " />
<polygon stroke="black" stroke-width="1" fill="rgb(204, 204, 204)" fill-opacity="0.25" points="555.012,707.818 555.012,908.928 571.188,942.871 571.188,720.936 " />
<polygon stroke="black" stroke-width="1" fill="rgb(204, 204, 204)" fill-opacity="0.25" points="538.838,942.871 538.838,741.762 522.662,707.818 522.662,929.753 " />
<polygon stroke="black" stroke-width="1" fill="rgb(204, 204, 204)" fill-opacity="0.25" points="472.566,907.897 458.760,707.262 443.523,721.459 458.760,942.871 " />
<polygon stroke="black" stroke-width="1" fill="rgb(204, 204, 204)" fill-opacity="0.25" points="2987.020,950.799 2973.213,750.164 2957.977,764.361 2973.213,985.773 " />

</svg>
